<?xml version="1.0" encoding="UTF-8" standalone="no"?>
<!-- Generator: Adobe Illustrator 16.0.0, SVG Export Plug-In . SVG Version: 6.00 Build 0)  -->

<svg
   xmlns:dc="http://purl.org/dc/elements/1.1/"
   xmlns:cc="http://creativecommons.org/ns#"
   xmlns:rdf="http://www.w3.org/1999/02/22-rdf-syntax-ns#"
   xmlns:svg="http://www.w3.org/2000/svg"
   xmlns="http://www.w3.org/2000/svg"
   xmlns:sodipodi="http://sodipodi.sourceforge.net/DTD/sodipodi-0.dtd"
   xmlns:inkscape="http://www.inkscape.org/namespaces/inkscape"
   version="1.1"
   id="Capa_1"
   x="0px"
   y="0px"
   width="478.666px"
   height="478.666px"
   viewBox="0 0 478.666 478.666"
   style="enable-background:new 0 0 478.666 478.666;"
   xml:space="preserve"
   sodipodi:docname="CloseDoorBoss.svg"
   inkscape:version="0.92.1 r15371"><metadata
     id="metadata41"><rdf:RDF><cc:Work
         rdf:about=""><dc:format>image/svg+xml</dc:format><dc:type
           rdf:resource="http://purl.org/dc/dcmitype/StillImage" /></cc:Work></rdf:RDF></metadata><defs
     id="defs39" /><sodipodi:namedview
     pagecolor="#ffffff"
     bordercolor="#666666"
     borderopacity="1"
     objecttolerance="10"
     gridtolerance="10"
     guidetolerance="10"
     inkscape:pageopacity="0"
     inkscape:pageshadow="2"
     inkscape:window-width="640"
     inkscape:window-height="480"
     id="namedview37"
     showgrid="false"
     showguides="false"
     inkscape:zoom="0.49303691"
     inkscape:cx="239.33299"
     inkscape:cy="239.33299"
     inkscape:window-x="0"
     inkscape:window-y="26"
     inkscape:window-maximized="0"
     inkscape:current-layer="Capa_1" /><g
     id="g4"><path
       d="M71.553,0v478.085l335.561,0.581V0H71.553z M103.109,446.583V31.558h272.445v56.813h-10.781V42.086H113.893v394.468   h250.881V390.27h10.781v56.785L103.109,446.583z M364.773,137.459h10.781V341.18h-10.781V137.459z M165.787,239.32   c0,9.148-7.418,16.566-16.568,16.566c-9.15,0-16.568-7.418-16.568-16.566c0-9.15,7.418-16.568,16.568-16.568   C158.369,222.752,165.787,230.17,165.787,239.32z"
       id="path2" /></g><g
     id="g6" /><g
     id="g8" /><g
     id="g10" /><g
     id="g12" /><g
     id="g14" /><g
     id="g16" /><g
     id="g18" /><g
     id="g20" /><g
     id="g22" /><g
     id="g24" /><g
     id="g26" /><g
     id="g28" /><g
     id="g30" /><g
     id="g32" /><g
     id="g34" /><path
     sodipodi:type="star"
     style="fill:#ff0000"
     id="path3735"
     sodipodi:sides="5"
     sodipodi:cx="239.33299"
     sodipodi:cy="135.89245"
     sodipodi:r1="66.96283"
     sodipodi:r2="33.481415"
     sodipodi:arg1="0.95758898"
     sodipodi:arg2="1.5859075"
     inkscape:flatsided="false"
     inkscape:rounded="0"
     inkscape:randomized="0"
     d="m 277.86966,190.65509 -39.04259,-21.28504 -39.66795,20.09554 8.17845,-43.70915 -31.37006,-31.5166 44.09715,-5.7287 20.28018,-39.573868 19.07509,40.168618 43.90391,7.0586 -32.3081,30.55427 z"
     inkscape:transform-center-x="-0.31267855"
     inkscape:transform-center-y="-6.0962766" /></svg>